<svg xmlns="http://www.w3.org/2000/svg" xmlns:xlink="http://www.w3.org/1999/xlink" xml:space="preserve" fill-rule="evenodd" stroke-linecap="round" stroke-linejoin="round" stroke-miterlimit="1.5" clip-rule="evenodd" viewBox="0 0 200 200">
  <g transform="matrix(1.63934 0 0 1.38889 -3460.66 -94.44)">
    <path fill="none" d="M2111 68h122v144h-122z"/>
    <g transform="translate(-454.793 -52.2327) scale(1.16364)">
      <use xlink:href="#a" width="185.034" height="185.034" x="7.522" y="7.522" transform="matrix(.5215 0 0 .61554 2204.98 103.325)"/>
      <path fill="none" stroke="#fff" stroke-width="5.93" d="M1301 383.5c0-76.992-83.9-139.5-187.25-139.5h-374.5C635.904 244 552 306.508 552 383.5v279c0 76.992 83.904 139.5 187.25 139.5h374.5C1217.1 802 1301 739.492 1301 662.5v-279Z" transform="matrix(.11198 0 0 .17742 2153.65 72.4097)"/>
      <use xlink:href="#b" width="148.672" height="104.835" x="25.721" y="47.657" transform="matrix(.52307 0 0 .61778 2204.98 103.325)"/>
      <g transform="matrix(-.25125 0 0 .29655 2276.64 145.339)">
        <path fill="none" stroke="#00deff" stroke-linecap="butt" stroke-miterlimit="2" stroke-width="3.13" d="M0 130.004c-3.743-10.979-14.223-30.193-14.223-30.193 0 2.745-1.497 3.743-1.497 3.743s.499-4.242-1.747-9.482c-2.495-5.24-11.728-4.991-11.728-4.991 1.248 2.745 5.49 5.24 5.49 5.24-16.219-2.994-18.715-13.724-18.715-13.724 0 4.242.998 5.74.998 5.74-14.971-10.481-24.454-41.422-20.711-59.388-2.245 2.745-4.99 2.495-4.99 2.495 3.244-4.991 5.988-11.478 5.988-11.478 10.73-25.702 27.948-31.191 27.948-31.191-4.741 1.746-7.486 0-7.486 0 19.713-7.736 36.68-21.709 79.849-16.719 43.168 4.991 62.382 31.94 72.363 41.422 10.231 9.482 17.966.998 17.966.998-2.495-.749-3.743-3.493-3.743-3.493s.998 1.746 10.979 2.246c9.732.498 18.715 5.24 18.715 5.24-.249-1.248.25-2.496.25-2.496 1.497 3.993 8.234 7.985 16.219 17.218 8.234 9.232 8.234 19.962 8.234 19.962.499-1.747 1.248-2.246 1.248-2.246-.499 4.492 0 8.734 0 8.734.749-2.495 2.994-3.993 2.994-3.993s-3.493 5.74-.499 10.231c2.745 4.741 3.494 7.486 3.494 7.486 39.176 35.932 32.438 46.662 32.438 46.662s-26.45-31.69-39.176-39.925c0 0-7.985-3.493-12.975-9.981-10.231-.749-8.983-2.745-19.214-1.248 0 0 .749-1.996 2.246-1.996-27.947 6.737-51.153 8.983-55.894 16.219 0 0-1.248-2.994.499-4.741-17.218-.499-51.902 2.496-55.645 26.949-2.495 16.22 3.244 19.214 3.244 19.214s-2.995-.499-4.242-1.996c0 0 14.473 14.473 25.202 19.962 0 0 3.494-1.996 6.488-1.247 0 0 1.747-1.248 3.493 1.497 0 0-1.247-.499-1.746.499 0 0 .499 1.497-.749 2.745-1.248 1.247-3.244.748-3.244.748s5.24 2.246 9.482 2.745c4.242.499 6.238 3.992 6.238 3.992s2.995-.249 3.494 4.492c0 0-1.497-2.745-3.993-2.246 0 0-1.497 3.244-5.489 1.497-4.242-1.996-8.484-3.493-8.484-3.493s5.489 3.244 8.983 5.49c.249.249 1.746.998 1.996 3.243 0 0 1.996.999 2.246 4.492 0 0-2.246-2.495-3.993-2.745 0 0-4.242 1.996-8.234-1.996-3.993-3.993-6.987-7.486-16.718-7.735-2.246-.25-5.49-.5-8.235-.25 0 0-1.248.25-2.246-.499 0 0-.998-.25-1.996 1.248 0 0-.249-1.747 1.497-2.745 0 0 0-1.497 1.747-1.747 1.996-.249 5.24.998 7.236-.499 0 0-15.72-14.722-28.196-21.459 0 0-1.498-.749-1.997-1.997 0 0-.249.749.749 2.995 0 0-7.236-2.496-10.979-15.471 0 0-.749 1.247-.499 3.244 0 0-2.246-1.248-2.995-4.991 0 0-4.242.25-2.245 5.989 1.996 5.49 10.48 19.962 10.48 19.962s3.244-.748 4.741.499c0 0 2.246-.249 2.745 2.246 0 0-.749-.499-1.747 0 0 0 0 1.248-1.248 2.246 0 0 2.246 1.746 5.989 2.745 3.743 1.247 4.491 3.493 4.491 3.493s1.747 0 1.498 2.246c0 0-.749-1.248-2.246-1.248 0 0-.998 1.747-3.743 1.248-2.745-.499-6.238-3.494-9.482-4.242 0 0 .998 2.994 2.994 5.489 1.747 2.496.749 3.244.749 3.244s.748 1.248 0 3.494c0 0-.499-1.997-1.747-2.745 0 0-2.246 1.746-4.242-1.497-1.747-3.244-1.747-9.982-9.482-8.484 0 0-4.741 4.491-8.484 2.245 0 0-.998.25-1.497 1.747 0 0-.499-1.497.249-3.244-.249-4.491 7.237-6.487 7.237-8.484-.25-1.996-2.745-7.236-2.745-7.236"/>
      </g>
    </g>
  </g>
</svg>
